<svg width="39" height="40" viewBox="0 0 39 40" fill="none" xmlns="http://www.w3.org/2000/svg">
<g clip-path="url(#clip0_369_133)">
<path d="M25.6184 26.5238H36.7879C34.2158 33.8016 27.3592 39.0125 19.316 39.0125C9.06315 39.0125 0.75 30.5566 0.75 20.1276C0.75 9.69867 9.06315 1.25 19.316 1.25C27.3592 1.25 34.2087 6.45363 36.7879 13.7315H25.6184C23.9558 12.0258 21.7176 11.0646 19.316 11.0646C14.4063 11.0646 10.406 15.1336 10.406 20.1348C10.406 25.1361 14.4063 29.1978 19.316 29.1978C21.7176 29.1978 23.9558 28.2438 25.6184 26.531V26.5238Z" fill="#13234D"/>
<path d="M37.8818 20.125C37.8818 20.7249 37.8534 21.3103 37.7966 21.8957H23.4653L22.7831 22.8064C21.9447 23.9194 20.68 24.5626 19.3157 24.5626C16.9071 24.5626 14.9531 22.5751 14.9531 20.125C14.9531 17.675 16.9071 15.6875 19.3157 15.6875C20.6871 15.6875 21.9518 16.3307 22.7831 17.4437L23.4653 18.3471H37.7966C37.8534 18.9325 37.8818 19.5252 37.8818 20.125Z" fill="#F26125"/>
</g>
<defs>
<clipPath id="clip0_369_133">
<rect width="39" height="39" fill="white" transform="translate(0 0.5)"/>
</clipPath>
</defs>
</svg>
