<svg width="148" height="40" viewBox="0 0 148 40" fill="none" xmlns="http://www.w3.org/2000/svg">
<g clip-path="url(#clip0_2492_262)">
<path d="M25.6184 26.9355H36.7879C34.2158 34.2134 27.3592 39.4242 19.316 39.4242C9.06315 39.4242 0.75 30.9684 0.75 20.5394C0.75 10.1104 9.06315 1.66174 19.316 1.66174C27.3592 1.66174 34.2087 6.86538 36.7879 14.1432H25.6184C23.9558 12.4376 21.7176 11.4764 19.316 11.4764C14.4063 11.4764 10.406 15.5454 10.406 20.5466C10.406 25.5479 14.4063 29.6096 19.316 29.6096C21.7176 29.6096 23.9558 28.6556 25.6184 26.9427V26.9355Z" fill="white"/>
<path d="M37.8818 20.5368C37.8818 21.1366 37.8534 21.7221 37.7966 22.3074H23.4653L22.7831 23.2181C21.9447 24.3311 20.68 24.9744 19.3157 24.9744C16.9071 24.9744 14.9531 22.9869 14.9531 20.5368C14.9531 18.0867 16.9071 16.0992 19.3157 16.0992C20.6871 16.0992 21.9518 16.7424 22.7831 17.8554L23.4653 18.7589H37.7966C37.8534 19.3443 37.8818 19.9369 37.8818 20.5368Z" fill="#F26125"/>
</g>
<path d="M48.6664 30.8017C46.8031 30.8017 45.2214 30.3901 43.9214 29.5667C42.6214 28.7434 41.6291 27.5994 40.9444 26.1347C40.2684 24.6701 39.9304 22.9757 39.9304 21.0517C39.9304 19.1277 40.2684 17.4334 40.9444 15.9687C41.6291 14.5041 42.6214 13.3601 43.9214 12.5367C45.2214 11.7134 46.8031 11.3017 48.6664 11.3017C50.8331 11.3017 52.6141 11.8521 54.0094 12.9527C55.4134 14.0534 56.3797 15.5354 56.9084 17.3987L54.5554 18.0227C54.1741 16.6274 53.4937 15.5267 52.5144 14.7207C51.5351 13.9147 50.2524 13.5117 48.6664 13.5117C47.2711 13.5117 46.1097 13.8281 45.1824 14.4607C44.2551 15.0934 43.5574 15.9774 43.0894 17.1127C42.6214 18.2394 42.3831 19.5524 42.3744 21.0517C42.3657 22.5424 42.5954 23.8554 43.0634 24.9907C43.5314 26.1174 44.2334 27.0014 45.1694 27.6427C46.1054 28.2754 47.2711 28.5917 48.6664 28.5917C50.2524 28.5917 51.5351 28.1887 52.5144 27.3827C53.4937 26.5681 54.1741 25.4674 54.5554 24.0807L56.9084 24.7047C56.3797 26.5594 55.4134 28.0414 54.0094 29.1507C52.6141 30.2514 50.8331 30.8017 48.6664 30.8017ZM65.7395 30.8017C64.3441 30.8017 63.1395 30.4854 62.1255 29.8527C61.1201 29.2201 60.3445 28.3447 59.7985 27.2267C59.2525 26.1087 58.9795 24.8261 58.9795 23.3787C58.9795 21.9054 59.2568 20.6141 59.8115 19.5047C60.3661 18.3954 61.1505 17.5331 62.1645 16.9177C63.1785 16.2937 64.3701 15.9817 65.7395 15.9817C67.1435 15.9817 68.3525 16.2981 69.3665 16.9307C70.3805 17.5547 71.1561 18.4257 71.6935 19.5437C72.2395 20.6531 72.5125 21.9314 72.5125 23.3787C72.5125 24.8434 72.2395 26.1347 71.6935 27.2527C71.1475 28.3621 70.3675 29.2331 69.3535 29.8657C68.3395 30.4897 67.1348 30.8017 65.7395 30.8017ZM65.7395 28.6047C67.1955 28.6047 68.2788 28.1194 68.9895 27.1487C69.7001 26.1781 70.0555 24.9214 70.0555 23.3787C70.0555 21.7927 69.6958 20.5317 68.9765 19.5957C68.2571 18.6511 67.1781 18.1787 65.7395 18.1787C64.7601 18.1787 63.9541 18.3997 63.3215 18.8417C62.6888 19.2837 62.2165 19.8947 61.9045 20.6747C61.5925 21.4547 61.4365 22.3561 61.4365 23.3787C61.4365 24.9561 61.8005 26.2214 62.5285 27.1747C63.2565 28.1281 64.3268 28.6047 65.7395 28.6047ZM75.6347 30.4117V11.3017H77.9487V30.4117H75.6347ZM82.1093 30.4117V11.3017H84.4233V30.4117H82.1093ZM88.5839 13.8887V11.4967H90.8979V13.8887H88.5839ZM88.5839 30.4117V16.3717H90.8979V30.4117H88.5839ZM104.796 30.4117V23.3787C104.796 22.7114 104.735 22.0701 104.614 21.4547C104.501 20.8394 104.297 20.2891 104.003 19.8037C103.717 19.3097 103.327 18.9197 102.833 18.6337C102.347 18.3477 101.732 18.2047 100.987 18.2047C100.406 18.2047 99.8772 18.3044 99.4005 18.5037C98.9325 18.6944 98.5295 18.9891 98.1915 19.3877C97.8535 19.7864 97.5892 20.2891 97.3985 20.8957C97.2165 21.4937 97.1255 22.2001 97.1255 23.0147L95.6045 22.5467C95.6045 21.1861 95.8472 20.0204 96.3325 19.0497C96.8265 18.0704 97.5155 17.3207 98.3995 16.8007C99.2922 16.2721 100.341 16.0077 101.546 16.0077C102.456 16.0077 103.231 16.1507 103.873 16.4367C104.514 16.7227 105.047 17.1041 105.472 17.5807C105.896 18.0487 106.23 18.5774 106.473 19.1667C106.715 19.7474 106.884 20.3411 106.98 20.9477C107.084 21.5457 107.136 22.1134 107.136 22.6507V30.4117H104.796ZM94.7855 30.4117V16.3717H96.8655V20.1287H97.1255V30.4117H94.7855ZM116.472 30.8017C115.094 30.8017 113.89 30.4984 112.858 29.8917C111.836 29.2764 111.038 28.4227 110.466 27.3307C109.894 26.2301 109.608 24.9474 109.608 23.4827C109.608 21.9487 109.89 20.6227 110.453 19.5047C111.017 18.3781 111.801 17.5114 112.806 16.9047C113.82 16.2894 115.008 15.9817 116.368 15.9817C117.781 15.9817 118.981 16.3067 119.969 16.9567C120.966 17.6067 121.711 18.5341 122.205 19.7387C122.708 20.9434 122.925 22.3777 122.855 24.0417H120.515V23.2097C120.489 21.4851 120.138 20.1981 119.462 19.3487C118.786 18.4907 117.781 18.0617 116.446 18.0617C115.016 18.0617 113.929 18.5211 113.183 19.4397C112.438 20.3584 112.065 21.6757 112.065 23.3917C112.065 25.0471 112.438 26.3297 113.183 27.2397C113.929 28.1497 114.99 28.6047 116.368 28.6047C117.296 28.6047 118.102 28.3924 118.786 27.9677C119.471 27.5431 120.008 26.9321 120.398 26.1347L122.621 26.9017C122.075 28.1411 121.252 29.1031 120.151 29.7877C119.059 30.4637 117.833 30.8017 116.472 30.8017ZM111.285 24.0417V22.1827H121.659V24.0417H111.285ZM129.487 30.8017C128.438 30.8017 127.558 30.6111 126.848 30.2297C126.146 29.8397 125.613 29.3284 125.249 28.6957C124.893 28.0631 124.716 27.3697 124.716 26.6157C124.716 25.8791 124.854 25.2421 125.132 24.7047C125.418 24.1587 125.816 23.7081 126.328 23.3527C126.839 22.9887 127.45 22.7027 128.161 22.4947C128.828 22.3127 129.573 22.1567 130.397 22.0267C131.229 21.8881 132.069 21.7624 132.919 21.6497C133.768 21.5371 134.561 21.4287 135.298 21.3247L134.466 21.8057C134.492 20.5577 134.24 19.6347 133.712 19.0367C133.192 18.4387 132.29 18.1397 131.008 18.1397C130.158 18.1397 129.413 18.3347 128.772 18.7247C128.139 19.1061 127.693 19.7301 127.433 20.5967L125.236 19.9337C125.574 18.7031 126.228 17.7367 127.199 17.0347C128.169 16.3327 129.448 15.9817 131.034 15.9817C132.308 15.9817 133.4 16.2114 134.31 16.6707C135.228 17.1214 135.887 17.8061 136.286 18.7247C136.485 19.1581 136.611 19.6304 136.663 20.1417C136.715 20.6444 136.741 21.1731 136.741 21.7277V30.4117H134.687V27.0447L135.168 27.3567C134.639 28.4921 133.898 29.3501 132.945 29.9307C132 30.5114 130.847 30.8017 129.487 30.8017ZM129.838 28.8647C130.67 28.8647 131.389 28.7174 131.996 28.4227C132.611 28.1194 133.105 27.7251 133.478 27.2397C133.85 26.7457 134.093 26.2084 134.206 25.6277C134.336 25.1944 134.405 24.7134 134.414 24.1847C134.431 23.6474 134.44 23.2357 134.44 22.9497L135.246 23.3007C134.492 23.4047 133.751 23.5044 133.023 23.5997C132.295 23.6951 131.606 23.7991 130.956 23.9117C130.306 24.0157 129.721 24.1414 129.201 24.2887C128.819 24.4101 128.46 24.5661 128.122 24.7567C127.792 24.9474 127.524 25.1944 127.316 25.4977C127.116 25.7924 127.017 26.1607 127.017 26.6027C127.017 26.9841 127.112 27.3481 127.303 27.6947C127.502 28.0414 127.805 28.3231 128.213 28.5397C128.629 28.7564 129.17 28.8647 129.838 28.8647ZM140.121 30.4117V16.3717H142.188V19.7647L141.85 19.3227C142.014 18.8894 142.227 18.4907 142.487 18.1267C142.755 17.7627 143.054 17.4637 143.384 17.2297C143.748 16.9351 144.159 16.7097 144.619 16.5537C145.078 16.3977 145.546 16.3067 146.023 16.2807C146.499 16.2461 146.946 16.2764 147.362 16.3717V18.5427C146.876 18.4127 146.343 18.3781 145.763 18.4387C145.182 18.4994 144.645 18.7117 144.151 19.0757C143.7 19.3964 143.349 19.7864 143.098 20.2457C142.855 20.7051 142.686 21.2034 142.591 21.7407C142.495 22.2694 142.448 22.8111 142.448 23.3657V30.4117H140.121Z" fill="white"/>
<defs>
<clipPath id="clip0_2492_262">
<rect width="39" height="39" fill="white" transform="translate(0 0.911743)"/>
</clipPath>
</defs>
</svg>
